<?xml version="1.0" encoding="utf-8"?>
<!-- Generator: Adobe Illustrator 15.1.0, SVG Export Plug-In . SVG Version: 6.00 Build 0)  -->
<!DOCTYPE svg PUBLIC "-//W3C//DTD SVG 1.1//EN" "http://www.w3.org/Graphics/SVG/1.1/DTD/svg11.dtd">
<svg version="1.1" xmlns="http://www.w3.org/2000/svg" xmlns:xlink="http://www.w3.org/1999/xlink" x="0px" y="0px" width="64px"
	 height="64px" viewBox="0 0 64 64" enable-background="new 0 0 64 64" xml:space="preserve">
<g id="Layer_1" display="none">
	<g display="inline">
		<path fill-rule="evenodd" clip-rule="evenodd" fill="#94C6EB" d="M48.305,57.394H11.096c0,0-2.023,0.264-2.112-2.462V4.876
			c0,0-0.616-2.815,2.288-2.551h26.127l13.282,12.844v40.114C50.681,55.283,51.12,57.657,48.305,57.394z M38.718,8.22v5.806h5.894
			L38.718,8.22z M47.161,17.368H37.134c-2.023-0.176-1.76-2.199-1.76-2.199V5.757H12.415v48.03h34.747V17.368z M17.869,22.382
			h23.927c0.486,0,0.88,0.394,0.88,0.88v0.879c0,0.486-0.394,0.88-0.88,0.88H17.869c-0.486,0-0.88-0.395-0.88-0.88v-0.879
			C16.989,22.776,17.383,22.382,17.869,22.382z M17.869,31.179h23.927c0.486,0,0.88,0.393,0.88,0.88v0.879
			c0,0.487-0.394,0.88-0.88,0.88H17.869c-0.486,0-0.88-0.394-0.88-0.88v-0.879C16.989,31.572,17.383,31.179,17.869,31.179z"/>
		<g>
			<circle fill-rule="evenodd" clip-rule="evenodd" fill="#FFFFFF" cx="40.3" cy="47.11" r="12.619"/>
			<path fill-rule="evenodd" clip-rule="evenodd" fill="#65BB46" d="M40.416,32.381c8.094,0,14.654,6.563,14.654,14.655
				c0,8.094-6.561,14.656-14.654,14.656S25.759,55.13,25.759,47.036C25.759,38.944,32.322,32.381,40.416,32.381z M40.416,35.896
				c6.153,0,11.143,4.988,11.143,11.141c0,6.154-4.989,11.143-11.143,11.143S29.273,53.19,29.273,47.036
				C29.273,40.884,34.263,35.896,40.416,35.896z"/>
			<path fill-rule="evenodd" clip-rule="evenodd" fill="#65BB46" d="M38.525,48.753l9.932-9.934c0,0,2.389-1.771,4.005,0.077
				c0,0,1.079,1.387-0.078,3.773l-11.78,11.858c0,0-0.525,0.585-1.476,0.767c-0.797,0.149-1.952,0.001-2.759-0.842l-4.549-5.294
				c0,0-1.069-1.25-0.907-2.484c0.183-1.368,1.571-2.541,2.809-2.649c0.688-0.061,1.46,0.411,1.736,0.648
				c0.418,0.359,0.765,0.781,0.765,0.781L38.525,48.753z"/>
		</g>
	</g>
</g>
<g id="Layer_2" display="none">
	<path display="inline" fill-rule="evenodd" clip-rule="evenodd" fill="#FCCF3F" d="M41.334,35.163L57.834,52
		c0,0,1.334,2.167,0,4.167s-1,2.833-3,2.833s-4-1-4-1L34.311,41.667L41.334,35.163z"/>
	<g display="inline">
		<g>
			<path fill-rule="evenodd" clip-rule="evenodd" fill="#D0D8DD" d="M24.068,12.356c-0.5,0-0.906,0.399-0.906,0.893
				c0,0.493,0.406,0.893,0.906,0.893c6.006,0,10.875,4.798,10.875,10.715c0,0.494,0.406,0.893,0.907,0.893s0.905-0.399,0.905-0.893
				C36.756,17.953,31.077,12.356,24.068,12.356z M58.402,49.779l0.013-0.012L43.292,34.871c1.609-2.992,2.526-6.396,2.526-10.014
				c0-11.834-9.737-21.429-21.75-21.429c-12.011,0-21.749,9.595-21.749,21.429c0,11.835,9.738,21.43,21.749,21.43
				c3.682,0,7.145-0.91,10.182-2.501l0.062,0.061c0,0.001-0.001,0.001-0.001,0.001L49.368,58.68l-0.004,0.005
				c1.161,1.162,2.772,1.889,4.558,1.889c3.533,0,6.397-2.822,6.397-6.304C60.319,52.511,59.582,50.923,58.402,49.779z
				 M24.068,42.715c-10.009,0-18.124-7.996-18.124-17.858S14.06,6.999,24.068,6.999c10.011,0,18.126,7.996,18.126,17.858
				S34.079,42.715,24.068,42.715z M53.922,57.421c-0.902,0-1.709-0.374-2.294-0.97L37.012,42.052c1.721-1.263,3.242-2.763,4.52-4.46
				l14.622,14.404l-0.018,0.013c0.604,0.576,0.985,1.371,0.985,2.261C57.121,56.011,55.688,57.421,53.922,57.421z"/>
		</g>
	</g>
	<path display="inline" fill-rule="evenodd" clip-rule="evenodd" fill="#49525C" d="M37.129,42.284l14.405,14.189
		c0.58,0.592,1.384,0.965,2.281,0.965c1.757,0,3.181-1.401,3.181-3.134c0-0.885-0.378-1.676-0.979-2.248l0.017-0.013l-14.353-14.14
		c0.694-0.929,1.257-1.854,1.715-2.741l14.887,14.663l-0.012,0.012c1.172,1.138,1.906,2.717,1.906,4.467
		c0,3.463-2.85,6.269-6.362,6.269c-1.775,0-3.38-0.722-4.532-1.879l0.004-0.004L34.311,43.939
		C35.345,43.432,36.278,42.876,37.129,42.284z"/>
</g>
<g id="Layer_3">
	<path fill-rule="evenodd" clip-rule="evenodd" fill="#2D4554" d="M16.28,8.037h30.435c2.116,0,3.836,1.717,3.836,3.836v41.174
		c0,2.119-1.72,3.837-3.836,3.837H16.28c-2.119,0-3.836-1.718-3.836-3.837V11.874C12.444,9.754,14.161,8.037,16.28,8.037z
		 M16.408,11.618h29.539c0.423,0,0.769,0.343,0.769,0.767v40.153c0,0.424-0.346,0.767-0.769,0.767H16.408
		c-0.424,0-0.767-0.343-0.767-0.767V12.384C15.641,11.961,15.984,11.618,16.408,11.618z"/>
	<path fill-rule="evenodd" clip-rule="evenodd" fill="#78909D" d="M42.814,11.746c0,2.43-1.918,2.557-1.918,2.557H22.483
		c-2.43-0.256-2.302-2.685-2.302-2.685V6.63l6.024,0.035c0.149-2.728,2.4-4.894,5.165-4.894c2.784,0,5.048,2.198,5.167,4.952
		l6.277,0.036V11.746z M31.437,4.139c1.464,0,2.652,1.188,2.652,2.653s-1.188,2.653-2.652,2.653c-1.466,0-2.653-1.188-2.653-2.653
		S29.971,4.139,31.437,4.139z"/>
	<g>
		<g>
			<path fill-rule="evenodd" clip-rule="evenodd" fill="#ADBBC3" d="M24.084,18.901h19.438c0.282,0,0.511-0.229,0.511-0.511
				c0-0.283-0.229-0.511-0.511-0.511H24.084c-0.282,0-0.511,0.229-0.511,0.511C23.573,18.672,23.802,18.901,24.084,18.901z
				 M43.521,21.715H24.084c-0.282,0-0.511,0.228-0.511,0.511c0,0.282,0.229,0.511,0.511,0.511h19.438
				c0.282,0,0.511-0.229,0.511-0.511C44.032,21.943,43.804,21.715,43.521,21.715z M43.521,25.55H24.084
				c-0.282,0-0.511,0.229-0.511,0.511c0,0.283,0.229,0.512,0.511,0.512h19.438c0.282,0,0.511-0.229,0.511-0.512
				C44.032,25.778,43.804,25.55,43.521,25.55z M19.014,17.879c-0.028,0-0.052,0.229-0.052,0.511c0,0.282,0.023,0.511,0.052,0.511
				h1.957c0.028,0,0.051-0.229,0.051-0.511c0-0.283-0.023-0.511-0.051-0.511H19.014z M19.014,21.715
				c-0.028,0-0.052,0.228-0.052,0.511c0,0.282,0.023,0.511,0.052,0.511h1.957c0.028,0,0.051-0.229,0.051-0.511
				c0-0.283-0.023-0.511-0.051-0.511H19.014z M19.014,25.55c-0.028,0-0.052,0.229-0.052,0.511c0,0.283,0.023,0.512,0.052,0.512
				h1.957c0.028,0,0.051-0.229,0.051-0.512c0-0.282-0.023-0.511-0.051-0.511H19.014z"/>
		</g>
	</g>
	<path fill-rule="evenodd" clip-rule="evenodd" fill="#A0A7D4" d="M23.172,28.173h30.258c0.659,0,1.194,0.534,1.194,1.195v30.257
		c0,0.659-0.535,1.193-1.194,1.193H23.172c-0.659,0-1.194-0.534-1.194-1.193V29.368C21.978,28.708,22.513,28.173,23.172,28.173z"/>
	<g>
		<polygon fill-rule="evenodd" clip-rule="evenodd" fill="#7984C1" points="32.716,43.2 39.238,45.55 39.238,53.246 32.716,55.812 
			26.17,53.174 26.17,45.478 		"/>
		<path fill-rule="evenodd" clip-rule="evenodd" fill="#F5F5F5" d="M25.813,45.141l6.903-2.406l6.904,2.511v8.315l-6.904,2.72
			l-6.903-2.772V45.141z M27.539,45.35l5.178-1.621l5.283,1.673l-5.335,1.726L27.539,45.35z M26.65,46.028l5.647,1.779v7.374
			l-5.647-2.144V46.028z M33.135,47.755l5.649-1.83v7.061l-5.649,2.302V47.755z"/>
		<polygon fill-rule="evenodd" clip-rule="evenodd" fill="#7984C1" points="42.087,33.057 46.912,34.795 46.912,40.489 
			42.087,42.388 37.242,40.436 37.242,34.741 		"/>
		<path fill-rule="evenodd" clip-rule="evenodd" fill="#F5F5F5" d="M36.979,34.492l5.108-1.78l5.108,1.857v6.153l-5.108,2.012
			l-5.108-2.051V34.492z M38.256,34.646l3.831-1.2l3.907,1.239l-3.945,1.276L38.256,34.646z M37.599,35.149l4.178,1.316v5.457
			l-4.178-1.587V35.149z M42.396,36.427l4.182-1.354v5.225L42.396,42V36.427z"/>
		<polygon fill-rule="evenodd" clip-rule="evenodd" fill="#F4A13A" points="46.464,43.924 50.551,45.396 50.551,50.219 
			46.464,51.826 42.361,50.174 42.361,45.351 		"/>
		<path fill-rule="evenodd" clip-rule="evenodd" fill="#F5F5F5" d="M42.138,45.14l4.326-1.508l4.326,1.574v5.211l-4.326,1.703
			l-4.326-1.736V45.14z M43.22,45.271l3.244-1.017l3.311,1.049l-3.344,1.081L43.22,45.271z M42.663,45.696l3.539,1.115v4.621
			l-3.539-1.344V45.696z M46.727,46.778l3.539-1.147v4.425l-3.539,1.442V46.778z"/>
	</g>
</g>
<g id="Layer_4" display="none">
	<g display="inline">
		<path fill-rule="evenodd" clip-rule="evenodd" fill="#FACDD2" d="M8.658,6.98h42.1c2.63,0,4.763,2.132,4.763,4.762v29.926
			L37.822,59.366H8.658c-2.63,0-4.763-2.132-4.763-4.763V11.742C3.895,9.112,6.028,6.98,8.658,6.98z"/>
		<g>
			<g>
				<path fill-rule="evenodd" clip-rule="evenodd" fill="#EF432E" d="M50.758,6.98h-42.1c-2.63,0-4.763,2.132-4.763,4.762v11.049
					h51.625V11.742C55.521,9.112,53.388,6.98,50.758,6.98z"/>
			</g>
		</g>
		<g>
			<path fill-rule="evenodd" clip-rule="evenodd" fill="#B52025" d="M18.047,8.425c2.894,0,5.238,2.004,5.238,4.476
				c0,2.474-2.345,4.477-5.238,4.477c-2.893,0-5.239-2.003-5.239-4.477C12.809,10.429,15.154,8.425,18.047,8.425z"/>
			<path fill-rule="evenodd" clip-rule="evenodd" fill="#D0D8DC" d="M18.047,1.932c1.578,0,2.857,1.28,2.857,2.857v7.239
				c0,1.579-1.279,2.857-2.857,2.857c-1.579,0-2.858-1.279-2.858-2.857V4.789C15.189,3.211,16.469,1.932,18.047,1.932z"/>
		</g>
		<g>
			<path fill-rule="evenodd" clip-rule="evenodd" fill="#B52025" d="M41.621,8.425c2.895,0,5.239,2.004,5.239,4.476
				c0,2.474-2.345,4.477-5.239,4.477c-2.893,0-5.238-2.003-5.238-4.477C36.383,10.429,38.729,8.425,41.621,8.425z"/>
			<path fill-rule="evenodd" clip-rule="evenodd" fill="#D0D8DC" d="M41.621,1.932c1.579,0,2.858,1.28,2.858,2.857v7.239
				c0,1.579-1.279,2.857-2.858,2.857c-1.578,0-2.857-1.279-2.857-2.857V4.789C38.764,3.211,40.043,1.932,41.621,1.932z"/>
		</g>
		<path fill-rule="evenodd" clip-rule="evenodd" fill="#B52025" d="M29.754,55.311l0.002,0.054l-0.304-0.037l-0.304,0.037
			l0.002-0.054c-6.278-0.078-9.64-3.731-9.64-3.731c0-0.454,0.455-3.282,0.455-3.282c0.757-1.968,5.35-3.482,5.35-3.482
			s0.008,2.691,4.153,4.625c0,0,2.042-0.954,2.87-2.134c0.875-1.244,1.252-2.491,1.252-2.491s4.593,1.515,5.35,3.482
			c0,0,0.455,2.828,0.455,3.282C39.395,51.579,36.033,55.232,29.754,55.311z M35.274,36.848c-0.241,2.583-1.225,3.24-1.225,3.24
			c-0.507,0.355-0.558,1.269-0.558,1.269c0,1.725-1.826,2.13-1.826,2.13v1.37l-2.235,2.036v0.044l-0.023-0.021l-0.024,0.021v-0.044
			l-2.234-2.036v-1.37c0,0-1.827-0.405-1.827-2.13c0,0-0.05-0.913-0.558-1.269c0,0-1.115-0.71-1.267-3.703h0.007
			c-0.034-0.132-0.093-0.568,0.513-0.771c0.088-0.029-0.009-0.19-0.01-0.292c-0.031-1.929,0.529-5.361,4.746-6.213
			c0,0,4.815-0.683,5.856,4.293l0.098,2.051l-0.125,0.933h0.735c-0.001,0.031-0.007,0.055-0.009,0.087
			c0.058,0.035,0.117,0.081,0.179,0.15L35.274,36.848z"/>
		<g>
			<path fill-rule="evenodd" clip-rule="evenodd" d="M29.708,62.068c0,0,0.343-2.48,0.97-4.978l3.831,4.125
				C33.336,61.537,31.783,61.844,29.708,62.068z"/>
			<path fill-rule="evenodd" clip-rule="evenodd" fill="#FFD640" d="M47.985,36.858l6.484,6.491L37.942,59.588
				c0,0-0.063,0.082-0.35,0.293l-5.881-5.888C31.757,53.89,47.985,36.858,47.985,36.858z"/>
			<path fill-rule="evenodd" clip-rule="evenodd" fill="#FAA722" d="M30.373,58.323c0.327-1.487,0.765-3.126,1.299-4.363
				l5.921,5.921c-0.459,0.363-1.579,1.017-4.025,1.57L30.373,58.323z"/>
			<path fill-rule="evenodd" clip-rule="evenodd" fill="#FFD640" d="M31.671,53.96"/>
			<path fill-rule="evenodd" clip-rule="evenodd" fill="#E3F3F6" d="M47.736,37.104l3.639-3.737l6.568,6.566l-3.722,3.656
				L47.736,37.104z"/>
			<path fill-rule="evenodd" clip-rule="evenodd" fill="#F58762" d="M57.602,40.129l-6.439-6.439l1.598-1.641
				c0,0,2.096-1.714,3.811-0.19l2.857,3.428c0,0,1.523,1.524,0,3.048L57.602,40.129z"/>
		</g>
	</g>
</g>
<g id="Layer_5" display="none">
	<g display="inline">
		<path fill-rule="evenodd" clip-rule="evenodd" fill="#94C6EB" d="M2.781,3.854h43.28v55.904H2.781V3.854z"/>
		<g>
			<g>
				<path fill-rule="evenodd" clip-rule="evenodd" fill="#0477BE" d="M9.5,9.027v2.785h29.841V9.027H9.5z M25.416,15.394H9.5v2.785
					h15.916V15.394z M9.5,24.546h29.841V21.76H9.5V24.546z M9.5,30.912h15.916v-2.785H9.5V30.912z"/>
			</g>
		</g>
		<g>
			<circle fill-rule="evenodd" clip-rule="evenodd" fill="#F5F5F5" cx="32.173" cy="31.695" r="16.115"/>
			<path fill-rule="evenodd" clip-rule="evenodd" fill="#FCCF3F" d="M46.109,39.924L59.24,53.323c0,0,1.062,1.724,0,3.316
				c-1.061,1.591-0.795,2.255-2.387,2.255s-3.186-0.797-3.186-0.797L40.52,45.1L46.109,39.924z"/>
			<g>
				<g>
					<g>
						<path fill-rule="evenodd" clip-rule="evenodd" fill="#0477BE" d="M17.887,37.407H30.12v-4.894H17.887V37.407z M17.886,22.313
							v4.894H40.52v-4.894H17.886z"/>
					</g>
				</g>
			</g>
			<g>
				<g>
					<path fill-rule="evenodd" clip-rule="evenodd" fill="#D0D8DD" d="M59.693,51.557l0.01-0.011L47.67,39.691
						c1.279-2.38,2.008-5.089,2.008-7.969c0-9.418-7.748-17.053-17.308-17.053c-9.558,0-17.306,7.635-17.306,17.053
						c0,9.419,7.748,17.054,17.306,17.054c2.929,0,5.687-0.724,8.103-1.99l0.049,0.048c-0.001,0-0.001,0.001-0.002,0.001
						l11.984,11.804l-0.002,0.004c0.922,0.926,2.205,1.503,3.625,1.503c2.812,0,5.092-2.245,5.092-5.016
						C61.219,53.729,60.631,52.466,59.693,51.557z M32.37,45.935c-7.965,0-14.422-6.364-14.422-14.212
						c0-7.849,6.458-14.211,14.422-14.211c7.968,0,14.425,6.362,14.425,14.211C46.795,39.57,40.338,45.935,32.37,45.935z
						 M56.127,57.637c-0.717,0-1.359-0.298-1.824-0.771L42.67,45.406c1.369-1.005,2.58-2.198,3.598-3.549l0.15,0.148v0.001
						L57.904,53.32l-0.014,0.011c0.479,0.457,0.781,1.091,0.781,1.799C58.672,56.514,57.533,57.637,56.127,57.637z"/>
				</g>
			</g>
			<path fill-rule="evenodd" clip-rule="evenodd" fill="#49525C" d="M42.764,45.592l11.465,11.291
				c0.461,0.473,1.1,0.768,1.814,0.768c1.396,0,2.531-1.114,2.531-2.493c0-0.703-0.301-1.334-0.779-1.789l0.014-0.009L46.387,42.106
				c0.553-0.74,1-1.477,1.365-2.183l11.846,11.67l-0.008,0.009c0.932,0.905,1.516,2.162,1.516,3.555
				c0,2.756-2.268,4.988-5.062,4.988c-1.412,0-2.689-0.574-3.607-1.495l0.002-0.002L40.52,46.909
				C41.344,46.505,42.086,46.062,42.764,45.592z"/>
		</g>
	</g>
</g>
<g id="Layer_6" display="none">
	<g display="inline">
		<g>
			<g>
				<path fill-rule="evenodd" clip-rule="evenodd" fill="#CED4DA" d="M6.19,5.662H3.5v52.844h2.69V48.129h25.173v-2.882H6.19v-18.64
					h25.173v-2.882H6.19V5.662z M52.692,15.847v7.494h3.075v-7.494H52.692z"/>
			</g>
		</g>
		<g>
			<g>
				<path fill-rule="evenodd" clip-rule="evenodd" fill="#F7A839" d="M13.904,21.323c2.919,0,5.284-2.366,5.284-5.285
					c0-2.918-2.365-5.284-5.284-5.284c-2.918,0-5.284,2.366-5.284,5.284C8.62,18.958,10.986,21.323,13.904,21.323z M13.904,31.507
					c-2.918,0-5.284,2.367-5.284,5.285s2.366,5.284,5.284,5.284c2.919,0,5.284-2.366,5.284-5.284S16.823,31.507,13.904,31.507z"/>
			</g>
		</g>
		<path fill-rule="evenodd" clip-rule="evenodd" fill="#00B697" d="M20.756,8.64v12.106h31.13c0,0,0.96-8.263-9.801-10.185
			C42.085,10.562,43.815,9.985,20.756,8.64z"/>
		<path fill-rule="evenodd" clip-rule="evenodd" fill="#CED4DA" d="M20.756,42.076V29.97c5.303,0.309,9.282,0.578,12.285,0.808
			c-1.626,2.579-2.581,5.624-2.581,8.896c0,0.818,0.079,1.615,0.192,2.402H20.756z"/>
		<path fill-rule="evenodd" clip-rule="evenodd" fill="#A0A7D4" d="M46.973,25.794c7.693,0,13.932,6.238,13.932,13.932
			c0,7.694-6.238,13.932-13.932,13.932c-7.694,0-13.932-6.237-13.932-13.932C33.041,32.032,39.278,25.794,46.973,25.794z
			 M36.694,36.893c0,0,3.812,7.826,4.43,9.269c0,0,0.514,1.44,1.647,1.44c0,0,1.133,0.309,1.751-1.44c0,0,6.282-12.255,12.151-15.86
			c0,0-4.223-1.75-14.005,10.297C42.669,40.599,39.064,37.201,36.694,36.893z"/>
	</g>
</g>
<g id="Layer_7" display="none">
	<path display="inline" fill-rule="evenodd" clip-rule="evenodd" fill="#FACDD2" d="M9.908,6.98h42.1
		c2.63,0,4.763,2.132,4.763,4.762v29.926v11.707c0,0,0,2.25-0.395,3.125c-1.223,2.711-4.368,2.866-4.368,2.866H39.072H9.908
		c-2.631,0-4.764-2.132-4.764-4.763V11.742C5.145,9.112,7.277,6.98,9.908,6.98z"/>
	<g display="inline">
		<g>
			<path fill-rule="evenodd" clip-rule="evenodd" fill="#EF432E" d="M52.008,6.98h-42.1c-2.631,0-4.764,2.132-4.764,4.762v11.049
				h51.626V11.742C56.771,9.112,54.638,6.98,52.008,6.98z"/>
		</g>
	</g>
	<g display="inline">
		<path fill-rule="evenodd" clip-rule="evenodd" fill="#B52025" d="M19.297,8.425c2.895,0,5.238,2.004,5.238,4.476
			c0,2.475-2.344,4.478-5.238,4.478c-2.893,0-5.238-2.003-5.238-4.478C14.059,10.429,16.404,8.425,19.297,8.425z"/>
		<path fill-rule="evenodd" clip-rule="evenodd" fill="#D0D8DC" d="M19.297,1.932c1.578,0,2.857,1.28,2.857,2.857v7.239
			c0,1.579-1.279,2.857-2.857,2.857s-2.857-1.278-2.857-2.857V4.789C16.439,3.211,17.719,1.932,19.297,1.932z"/>
	</g>
	<g display="inline">
		<path fill-rule="evenodd" clip-rule="evenodd" fill="#B52025" d="M42.871,8.425c2.895,0,5.239,2.004,5.239,4.476
			c0,2.475-2.345,4.478-5.239,4.478c-2.893,0-5.238-2.003-5.238-4.478C37.633,10.429,39.979,8.425,42.871,8.425z"/>
		<path fill-rule="evenodd" clip-rule="evenodd" fill="#D0D8DC" d="M42.871,1.932c1.579,0,2.858,1.28,2.858,2.857v7.239
			c0,1.579-1.279,2.857-2.858,2.857c-1.578,0-2.857-1.278-2.857-2.857V4.789C40.014,3.211,41.293,1.932,42.871,1.932z"/>
	</g>
	<g display="inline">
		<g>
			<path fill-rule="evenodd" clip-rule="evenodd" fill="#F5F5F5" d="M16.426,25.282h-1.918c-2.551,0-4.62,2.068-4.62,4.62
				c0,2.55,2.068,4.618,4.62,4.618h1.918c2.552,0,4.62-2.068,4.62-4.618C21.046,27.35,18.978,25.282,16.426,25.282z M30.426,25.282
				h-1.919c-2.551,0-4.619,2.068-4.619,4.62c0,2.55,2.068,4.618,4.619,4.618h1.919c2.552,0,4.62-2.068,4.62-4.618
				C35.046,27.35,32.978,25.282,30.426,25.282z M44.426,25.282h-1.919c-2.551,0-4.619,2.068-4.619,4.62
				c0,2.55,2.068,4.618,4.619,4.618h1.919c2.552,0,4.62-2.068,4.62-4.618C49.046,27.35,46.978,25.282,44.426,25.282z M16.426,37.145
				h-1.918c-2.551,0-4.62,2.068-4.62,4.621c0,2.551,2.068,4.619,4.62,4.619h1.918c2.552,0,4.62-2.068,4.62-4.619
				C21.046,39.213,18.978,37.145,16.426,37.145z"/>
		</g>
	</g>
	<path display="inline" fill-rule="evenodd" clip-rule="evenodd" fill="#6E7272" d="M28.508,37.145h1.918
		c2.552,0,4.62,2.068,4.62,4.621c0,2.551-2.068,4.619-4.62,4.619h-1.918c-2.552,0-4.62-2.068-4.62-4.619
		C23.888,39.213,25.956,37.145,28.508,37.145z"/>
	<path display="inline" fill-rule="evenodd" clip-rule="evenodd" fill="#EF432E" d="M41.558,52.698L54.17,40.086
		c0,0,2.514-2.571,5.083,0.098c0,0,2.182,1.905-0.098,4.791L44.196,60.031c0,0-2.248,2.611-5.377-0.099l-6.306-7.756
		c0,0-2.616-3.391,0.31-5.439c0,0,2.563-1.812,4.821,0.895L41.558,52.698z"/>
</g>
<g id="Layer_8" display="none">
	<g display="inline">
		<path fill-rule="evenodd" clip-rule="evenodd" fill="#4D515C" d="M46.85,54.521H12.154c0,0-1.886,0.246-1.969-2.296V5.553
			c0,0-0.574-2.625,2.133-2.379h24.361L49.065,15.15v37.402C49.065,52.552,49.475,54.768,46.85,54.521z M37.909,8.67v5.413h5.496
			L37.909,8.67z M45.784,17.2h-9.352c-1.886-0.164-1.641-2.05-1.641-2.05V6.373H13.384v44.785h32.4V17.2z M18.469,21.875H40.78
			c0.453,0,0.82,0.368,0.82,0.82v0.82c0,0.452-0.367,0.82-0.82,0.82H18.469c-0.452,0-0.819-0.368-0.819-0.82v-0.82
			C17.65,22.243,18.017,21.875,18.469,21.875z M18.469,30.078H40.78c0.453,0,0.82,0.367,0.82,0.82v0.82
			c0,0.453-0.367,0.82-0.82,0.82H18.469c-0.452,0-0.819-0.367-0.819-0.82v-0.82C17.65,30.445,18.017,30.078,18.469,30.078z"/>
		<circle fill-rule="evenodd" clip-rule="evenodd" fill="#F5F5F5" cx="37.279" cy="46.485" r="12.52"/>
		<path fill-rule="evenodd" clip-rule="evenodd" fill="#A0A7D4" d="M37.146,31.525c8.192,0,14.836,6.643,14.836,14.836
			s-6.644,14.837-14.836,14.837c-8.196,0-14.837-6.644-14.837-14.837S28.951,31.525,37.146,31.525z M37.146,35.081
			c6.229,0,11.279,5.051,11.279,11.28s-5.051,11.279-11.279,11.279c-6.231,0-11.281-5.05-11.281-11.279S30.915,35.081,37.146,35.081
			z"/>
		<path fill-rule="evenodd" clip-rule="evenodd" fill="#78909D" d="M34.25,41.921c0,0,0-0.518,1.206-0.38
			c0,0,1.001-0.034,1.001,0.724c0,0,0.07,1.104-0.896,1.104c0,0-1.036,0.104-1.276-0.517C34.284,42.852,34.146,42.162,34.25,41.921z
			 M37.888,41.921c0,0,0-0.518,1.206-0.38c0,0,1.001-0.034,1.001,0.724c0,0,0.068,1.104-0.896,1.104c0,0-1.033,0.104-1.277-0.517
			C37.921,42.852,37.784,42.162,37.888,41.921z M37.353,54.717l0.001,0.036l-0.207-0.026l-0.208,0.026l0.001-0.036
			c-4.291-0.054-6.588-2.551-6.588-2.551c0-0.311,0.312-2.242,0.312-2.242c0.518-1.345,3.656-2.381,3.656-2.381l1.483,5.451
			c0.517-0.241,1.103-2.312,1.103-2.312L36.87,50.44l-0.413-0.587c0-0.164,0.468-0.51,0.651-0.638l0.002-0.051
			c0,0,0.013,0.009,0.036,0.024c0.021-0.016,0.034-0.024,0.034-0.024l0.002,0.051c0.184,0.128,0.651,0.474,0.651,0.638l-0.413,0.587
			l-0.033,0.242c0,0,0.585,2.07,1.102,2.312l1.483-5.451c0,0,3.139,1.036,3.655,2.381c0,0,0.312,1.932,0.312,2.242
			C43.939,52.166,41.644,54.663,37.353,54.717z M40.286,44.313c-0.346,0.243-0.38,0.866-0.38,0.866c0,1.179-1.248,1.457-1.248,1.457
			v0.937l-1.526,1.39v0.031l-0.018-0.017L37.1,48.994v-0.031l-1.527-1.39v-0.937c0,0-1.247-0.278-1.247-1.457
			c0,0-0.036-0.623-0.383-0.866c0,0-0.761-0.484-0.865-2.53c0,0,0.277-0.59,0.832,0.381v0.591c0,0,0,1.003,1.317,1.003
			c0,0,1.559,0.244,1.559-1.142c0,0,0-0.615,0.314-0.655v-0.004c0.005,0,0.011,0.001,0.015,0.002
			c0.007-0.001,0.011-0.002,0.018-0.002v0.004c0.313,0.04,0.314,0.655,0.314,0.655c0,1.386,1.559,1.142,1.559,1.142
			c1.318,0,1.318-1.003,1.318-1.003v-0.591c0.554-0.971,0.831-0.381,0.831-0.381C41.05,43.829,40.286,44.313,40.286,44.313z
			 M40.945,41.3c-0.621-0.068-1.518-0.14-1.518-0.14c-1.588,0.105-1.932,0.312-1.932,0.312l-0.262-0.033l-0.26,0.033
			c0,0-0.346-0.207-1.932-0.312c0,0-0.896,0.071-1.518,0.14c0,0-0.241-4.68,3.709-4.382C41.185,36.62,40.945,41.3,40.945,41.3z"/>
	</g>
</g>
<g id="Layer_9" display="none">
	<g display="inline">
		<path fill-rule="evenodd" clip-rule="evenodd" fill="#F8981D" d="M54.699,57.19H9.43c-2.191,0-3.966-1.776-3.966-3.966v-3.379
			c0-2.189,1.775-3.965,3.966-3.965h45.27c2.19,0,3.966,1.775,3.966,3.965v3.379C58.665,55.414,56.89,57.19,54.699,57.19z
			 M52.882,49.864H37.719c-0.852,0-1.542,0.69-1.542,1.543c0,0.852,0.69,1.542,1.542,1.542h15.163c0.853,0,1.543-0.69,1.543-1.542
			C54.425,50.555,53.734,49.864,52.882,49.864z M54.57,42.024H9.301c-2.191,0-3.966-1.775-3.966-3.966V10.775
			c0-2.19,1.775-3.966,3.966-3.966H54.57c2.19,0,3.967,1.775,3.967,3.966v27.283C58.537,40.249,56.761,42.024,54.57,42.024z
			 M54.296,13.158c0-1.022-0.829-1.851-1.852-1.851H11.426c-1.021,0-1.851,0.828-1.851,1.851v22.902c0,1.022,0.83,1.851,1.851,1.851
			h41.018c1.022,0,1.852-0.828,1.852-1.851V13.158z"/>
		<path fill-rule="evenodd" clip-rule="evenodd" fill="#21160B" d="M24.207,28.046l-5.916-5.962l-1.345,4.259l-4.661-12.415
			l12.101,4.751l-3.989,1.254l6.007,5.962c0.672,1.165-0.045,2.017-0.045,2.017C25.282,28.852,24.207,28.046,24.207,28.046z"/>
	</g>
</g>
<g id="Layer_10" display="none">
	<g display="inline">
		<g>
			<path fill-rule="evenodd" clip-rule="evenodd" fill="#D0D8DD" d="M9.47,33.297c0-0.595-0.482-1.078-1.078-1.078H4.084
				c-0.595,0-1.077,0.482-1.077,1.078c0,0.595,0.482,1.077,1.077,1.077h4.308C8.988,34.374,9.47,33.892,9.47,33.297z M11.984,34.374
				h4.309c0.595,0,1.077-0.482,1.077-1.077c0-0.595-0.482-1.078-1.077-1.078h-4.309c-0.595,0-1.078,0.482-1.078,1.078
				C10.906,33.892,11.389,34.374,11.984,34.374z M19.712,33.931l4.226,0.845c0.583,0.116,1.15-0.262,1.266-0.846
				c0.117-0.584-0.261-1.151-0.845-1.267l-4.225-0.844c-0.584-0.116-1.151,0.261-1.268,0.845
				C18.75,33.248,19.128,33.814,19.712,33.931z M24.806,36.079c-0.542-0.245-1.18-0.006-1.426,0.536l-1.782,3.923
				c-0.246,0.542-0.006,1.181,0.536,1.426c0.542,0.247,1.181,0.007,1.426-0.535l1.781-3.923
				C25.586,36.965,25.347,36.325,24.806,36.079z M19.453,42.785c-0.116-0.583-0.684-0.962-1.267-0.845l-4.226,0.844
				c-0.583,0.116-0.961,0.685-0.845,1.268s0.684,0.962,1.267,0.845l4.226-0.845C19.191,43.937,19.57,43.368,19.453,42.785z
				 M10.477,44.604c-0.297-0.516-0.956-0.691-1.471-0.394l-3.731,2.153c-0.515,0.298-0.692,0.956-0.394,1.472
				c0.297,0.515,0.957,0.691,1.472,0.395l3.731-2.155C10.599,45.777,10.774,45.118,10.477,44.604z M12.702,50.173H8.393
				c-0.595,0-1.077,0.481-1.077,1.077c0,0.594,0.482,1.077,1.077,1.077h4.309c0.595,0,1.077-0.483,1.077-1.077
				C13.779,50.654,13.296,50.173,12.702,50.173z M20.745,50.173h-4.309c-0.595,0-1.077,0.481-1.077,1.077
				c0,0.594,0.482,1.077,1.077,1.077h4.309c0.595,0,1.077-0.483,1.077-1.077C21.822,50.654,21.34,50.173,20.745,50.173z
				 M29.362,50.173h-4.309c-0.595,0-1.077,0.481-1.077,1.077c0,0.594,0.482,1.077,1.077,1.077h4.309
				c0.596,0,1.077-0.483,1.077-1.077C30.439,50.654,29.958,50.173,29.362,50.173z M37.836,50.173h-4.309
				c-0.595,0-1.078,0.481-1.078,1.077c0,0.594,0.483,1.077,1.078,1.077h4.309c0.595,0,1.077-0.483,1.077-1.077
				C38.913,50.654,38.431,50.173,37.836,50.173z"/>
		</g>
	</g>
	<path display="inline" fill-rule="evenodd" clip-rule="evenodd" fill="#EF432E" d="M44.703,49.985
		c-0.022,0.028-1.037,1.161-2.288,1.161c-0.005,0-0.108,0-0.111,0c-1.253,0-2.266-1.133-2.289-1.161
		c-6.312-7.258-14.972-17.583-14.972-27.681c0-9.643,7.767-17.311,17.317-17.311c9.549,0,17.316,7.667,17.316,17.311
		C59.676,32.402,51.019,42.728,44.703,49.985z M42.36,30.588c-4.774,0-8.657-3.881-8.657-8.653c0-4.771,3.883-8.653,8.657-8.653
		s8.658,3.882,8.658,8.653C51.019,26.707,47.135,30.588,42.36,30.588z"/>
</g>
<g id="Layer_11" display="none">
	<g display="inline">
		<path fill-rule="evenodd" clip-rule="evenodd" fill="#78909D" d="M32.087,14.562L42.9,25.776l-5.006,4.806l2.202,2.604
			l2.804,0.199l17.222,19.023l-4.606,4.807L37.494,37.791l-0.201-3.203l-2.203-1.803l-5.006,5.205L19.471,26.979L32.087,14.562z"/>
		<path fill-rule="evenodd" clip-rule="evenodd" fill="#78909D" d="M31.946,9.888l3.542-3.541c0.39-0.391,1.023-0.391,1.414,0
			l13.312,13.312c0.391,0.391,0.391,1.023,0,1.414l-3.541,3.542c-0.391,0.391-1.024,0.391-1.414,0L31.946,11.302
			C31.556,10.913,31.556,10.279,31.946,9.888z"/>
		<path fill-rule="evenodd" clip-rule="evenodd" fill="#F8981D" d="M11.612,30.295l3.542-3.541c0.39-0.391,1.023-0.391,1.414,0
			L29.88,40.065c0.391,0.391,0.391,1.023,0,1.414l-3.541,3.542c-0.391,0.391-1.024,0.391-1.414,0L11.612,31.709
			C11.222,31.319,11.222,30.686,11.612,30.295z"/>
		<path fill-rule="evenodd" clip-rule="evenodd" fill="#78909D" d="M4.878,51.338h37.449c0.552,0,1,0.448,1,1v4.608
			c0,0.553-0.448,1-1,1H4.878c-0.553,0-1-0.447-1-1v-4.608C3.878,51.786,4.325,51.338,4.878,51.338z"/>
	</g>
</g>
<g id="Layer_12" display="none">
	<g display="inline">
		<path fill-rule="evenodd" clip-rule="evenodd" fill="#7984C1" d="M31.808,51.025h-6.795c-0.001,3.317-0.005,6.344-0.009,6.729
			c-0.006,0.776-0.813,1.254-1.493,0.861c-1.036-0.596-13.157-7.592-13.761-7.944c-0.753-0.438-0.659-1.378-0.019-1.747
			c0.495-0.285,13.071-7.547,13.788-7.961c0.706-0.406,1.471,0.128,1.484,0.865c0.007,0.416,0.01,3.041,0.01,6.046h7.267
			c0,0,5.355-0.788,5.355-5.986v-4.308c0,0-0.157-4.726-5.512-5.356h-9.332v0.014h-9.765c-9.766,0-9.294-8.349-9.294-8.349V22
			v-3.048c-0.157-8.664,8.664-9.137,8.664-9.137H24.7c0-2.92,0.002-5.44,0.009-5.845c0.013-0.738,0.778-1.272,1.484-0.865
			c0.717,0.414,13.294,7.674,13.788,7.96c0.641,0.371,0.735,1.309-0.019,1.748c-0.603,0.352-12.725,7.349-13.761,7.945
			c-0.68,0.391-1.486-0.086-1.493-0.862c-0.003-0.376-0.007-3.249-0.009-6.456H12.712c-5.355,0.629-5.513,5.355-5.513,5.355v3.806
			c0.072,6.13,5.355,5.985,5.355,5.985h10.237v0.016h9.646c0,0,8.82,0.472,8.664,9.136v3.048v1.891
			C41.103,42.677,41.574,51.025,31.808,51.025z"/>
		<path fill-rule="evenodd" clip-rule="evenodd" fill="#F8981D" d="M35.012,27.104h16.584c4.79,0,8.675,3.884,8.675,8.675v16.583
			c0,4.791-3.885,8.675-8.675,8.675H35.012c-4.792,0-8.676-3.884-8.676-8.675V35.778C26.336,30.987,30.22,27.104,35.012,27.104z"/>
		<path fill-rule="evenodd" clip-rule="evenodd" fill="#FFFFFF" d="M44.875,47.267l-8.171-6.901l-6.894,6.361l1.776,1.806
			l5.355-4.558l7.578,7.007l8.564-7.845l2.705,2.613l1.437-8.466l-8.562,1.797l2.689,2.202L44.875,47.267z"/>
	</g>
</g>
<g id="Layer_13" display="none">
	<g display="inline">
		<path fill-rule="evenodd" clip-rule="evenodd" fill="#00B697" d="M50.172,54.35H7.932c-2.333,0-4.224-1.892-4.224-4.222V12.659
			c0-2.332,1.891-4.221,4.224-4.221h6.864V5.271c0-0.875,0.709-1.583,1.584-1.583c0.874,0,1.584,0.708,1.584,1.583v3.167h9.504
			V5.271c0-0.875,0.709-1.583,1.584-1.583c0.874,0,1.584,0.708,1.584,1.583v3.167h9.503V5.271c0-0.875,0.709-1.583,1.584-1.583
			c0.874,0,1.584,0.708,1.584,1.583v3.167h6.865c2.331,0,4.223,1.889,4.223,4.221v37.469C54.395,52.458,52.503,54.35,50.172,54.35z
			 M50.1,13.972c0-0.504-0.409-0.913-0.912-0.913h-6.283v2.74c0,0.757-0.614,1.37-1.371,1.37s-1.37-0.613-1.37-1.37v-2.74h-9.836
			v2.74c0,0.757-0.613,1.37-1.37,1.37c-0.758,0-1.372-0.613-1.372-1.37v-2.74H17.75v2.74c0,0.757-0.614,1.37-1.371,1.37
			s-1.371-0.613-1.371-1.37v-2.74H8.715c-0.504,0-0.914,0.409-0.914,0.913v34.733c0,0.505,0.41,0.913,0.914,0.913h40.473
			c0.503,0,0.912-0.408,0.912-0.913V13.972z"/>
		<path fill-rule="evenodd" clip-rule="evenodd" fill="#D0D8DD" d="M37.9,39.819h7.26v5.202H37.9V39.819z M37.9,31.15h7.26v5.201
			H37.9V31.15z M37.9,22.482h7.26v5.202H37.9V22.482z M25.197,39.819h7.258v5.202h-7.258V39.819z M25.197,31.15h7.258v5.201h-7.258
			V31.15z M25.197,22.482h7.258v5.202h-7.258V22.482z M12.491,39.819h7.26v5.202h-7.26V39.819z M12.491,31.15h7.26v5.201h-7.26
			V31.15z M12.491,22.482h7.26v5.202h-7.26V22.482z"/>
		<g>
			<circle fill-rule="evenodd" clip-rule="evenodd" fill="#FFFFFF" cx="42.881" cy="43.121" r="14.876"/>
			<path fill-rule="evenodd" clip-rule="evenodd" fill="#78909D" d="M43.016,25.76c9.543,0,17.276,7.734,17.276,17.274
				c0,9.541-7.733,17.277-17.276,17.277c-9.541,0-17.276-7.736-17.276-17.277C25.739,33.494,33.475,25.76,43.016,25.76z
				 M43.016,29.903c7.256,0,13.137,5.878,13.137,13.131c0,7.254-5.881,13.136-13.137,13.136c-7.254,0-13.135-5.882-13.135-13.136
				C29.881,35.781,35.762,29.903,43.016,29.903z"/>
			<path fill-rule="evenodd" clip-rule="evenodd" fill="#65BB46" d="M40.788,45.059l11.707-11.712c0,0,2.816-2.086,4.722,0.09
				c0,0,1.272,1.635-0.092,4.448L43.237,51.866c0,0-0.619,0.688-1.739,0.903c-0.94,0.176-2.301,0.001-3.252-0.993l-5.362-6.239
				c0,0-1.26-1.474-1.07-2.929c0.216-1.614,1.852-2.996,3.312-3.125c0.811-0.071,1.721,0.485,2.047,0.765
				c0.493,0.424,0.902,0.921,0.902,0.921L40.788,45.059z"/>
		</g>
	</g>
</g>
<g id="Layer_14" display="none">
	<g display="inline">
		<path fill-rule="evenodd" clip-rule="evenodd" fill="#94C6EB" d="M55.762,60.497H8.24c-2.625,0-4.751-2.128-4.751-4.749V13.595
			c0-2.624,2.127-4.749,4.751-4.749h7.723V5.284c0-0.984,0.797-1.781,1.782-1.781c0.983,0,1.782,0.796,1.782,1.781v3.563h10.692
			V5.284c0-0.984,0.797-1.781,1.782-1.781c0.983,0,1.783,0.796,1.783,1.781v3.563h10.689V5.284c0-0.984,0.799-1.781,1.783-1.781
			c0.982,0,1.781,0.796,1.781,1.781v3.563h7.725c2.621,0,4.75,2.125,4.75,4.749v42.153C60.512,58.369,58.383,60.497,55.762,60.497z
			 M55.68,15.072c0-0.567-0.461-1.027-1.025-1.027h-7.07v3.083c0,0.852-0.689,1.542-1.541,1.542s-1.541-0.69-1.541-1.542v-3.083
			H33.436v3.083c0,0.852-0.69,1.542-1.542,1.542c-0.853,0-1.543-0.69-1.543-1.542v-3.083H19.286v3.083
			c0,0.852-0.691,1.542-1.542,1.542s-1.542-0.69-1.542-1.542v-3.083h-7.08c-0.567,0-1.028,0.46-1.028,1.027v39.075
			c0,0.568,0.461,1.027,1.028,1.027h45.533c0.564,0,1.025-0.459,1.025-1.027V15.072z"/>
		<path fill-rule="evenodd" clip-rule="evenodd" fill="#D0D8DD" d="M14.685,25.502H26.6v8.539H14.685V25.502z"/>
		<path fill-rule="evenodd" clip-rule="evenodd" fill="#D0D8DD" d="M14.685,40.646H26.6v8.539H14.685V40.646z"/>
		<g>
			<path fill-rule="evenodd" clip-rule="evenodd" fill="#65BB46" d="M37.906,29.354l6.494-6.496c0,0,1.562-1.158,2.619,0.049
				c0,0,0.705,0.906-0.051,2.468l-7.703,7.755c0,0-0.344,0.382-0.967,0.501c-0.521,0.098-1.275,0.001-1.805-0.552l-2.975-3.46
				c0,0-0.698-0.817-0.593-1.624c0.121-0.896,1.027-1.662,1.837-1.733c0.449-0.04,0.953,0.27,1.135,0.424
				c0.273,0.235,0.5,0.51,0.5,0.51L37.906,29.354z"/>
		</g>
		<path fill-rule="evenodd" clip-rule="evenodd" fill="#F15B22" d="M41.359,44.916l2.42-2.419c0.787-0.787,0.787-2.063,0-2.853
			c-0.787-0.786-2.062-0.786-2.85,0l-2.422,2.421l-2.422-2.42c-0.787-0.787-2.062-0.787-2.85,0c-0.788,0.788-0.788,2.063,0,2.852
			l2.42,2.419l-2.42,2.419c-0.788,0.788-0.788,2.064,0,2.852c0.787,0.787,2.062,0.787,2.85,0.001l2.422-2.42l2.42,2.419
			c0.789,0.787,2.064,0.787,2.852,0s0.787-2.063,0-2.85L41.359,44.916z"/>
	</g>
</g>
<g id="Layer_15" display="none">
	<g display="inline">
		<path fill-rule="evenodd" clip-rule="evenodd" fill="#78909D" d="M21.969,47.812c0,0,5.844,0.094,3.219,1.457h-6.812
			c0,0-0.488-0.024-0.552-0.368C17.594,47.656,21.969,47.812,21.969,47.812z M30.684,34.453c0,0,1.669-0.119,0.848,1.297
			c-0.906,1.562-6.225,1.211-8.734,8.621c0,0-0.453,0.41-1.021,0.144c-0.248-0.116-0.459-0.315-0.413-0.862
			C21.363,43.652,22.917,36.604,30.684,34.453z M33.312,32.779c0,0,13.622-0.717,14.578,13.861c0,0,2.987,0.359,3.346,5.736H14.91
			c0,0,0.358-5.377,3.466-5.496C18.376,46.881,18.137,32.779,33.312,32.779z M30.684,31.226h5.019c0,0,1.52-3.459-2.509-3.584
			C29.369,27.522,30.684,30.748,30.684,31.226z M34.148,24.894v2.031h-1.911v-2.031h-2.988v-2.151h7.647v2.151H34.148z"/>
		<path fill-rule="evenodd" clip-rule="evenodd" d="M14.667,54.417l-3.083,3.249h43l-3.125-3.249H14.667z"/>
		<path fill-rule="evenodd" clip-rule="evenodd" fill="#F8981D" d="M9.804,6.334l2.987,2.15L6.936,18.881l-2.867-1.075L9.804,6.334z
			 M14.464,9.44l2.867,1.554c0,0,1.503,1.173,4.541,0.239l9.561-4.063c0,0,3.823-2.03,8.363,0.479l18.045,9.2
			c0,0,2.091,0.956,2.091,2.276c0,0.547-0.265,1.542-1.374,1.787c0,0-2.749,0.119-4.78-1.554c0,0,0.718,4.422-6.213,1.195
			c0,0-1.554,2.629-6.215,0.119L38.124,19c0,0,8.245,1.314,8.603-3.584c0,0,0.479-2.868-6.094-3.466l-4.674-0.2
			c0,0-7.709-0.333-10.143,3.546c0,0,3.704-1.075,6.213-1.075h9.679c0,0,2.51-0.12,2.629,1.434c0,0,0.205,2.138-4.541,1.314h-3.703
			c0,0-3.106,0.239-5.377,2.031c0,0-6.334,5.139-12.428,3.347l-9.321-3.466L14.464,9.44z"/>
	</g>
</g>
<g id="Layer_16" display="none">
	<g display="inline">
		<path fill-rule="evenodd" clip-rule="evenodd" fill="#EF4523" d="M48.58,31.298l-5.135-5.775h3.34V6.392H7.413l-0.021,6.669H3.403
			V6.758c0,0-0.7-3.247,3.33-3.885h40.351c0,0,3.422,0.423,3.51,3.593v18.955h3.475L48.58,31.298z M42.58,24.268v5.754
			c-0.066,2.554-2.287,2.467-2.287,2.467h-0.734v7.738c-0.012,2.143-1.775,2.301-1.775,2.301h-1.941
			c-2.184-0.219-2.215-1.888-2.215-1.888v-4.854c2.387-0.841,2.525-3.227,2.525-3.227v-7.509c0-0.342-0.527-1.019-0.527-1.019
			c0.473-0.062,0.486-0.715,0.486-0.715c-0.625-0.319-0.455-1.137-0.455-1.137c0.254-1.163,1.6-0.538,1.6-0.538
			c0.771,0.92-0.236,1.691-0.236,1.691l-0.012,0.292l0.961,1.156l1.67-3.341C42.492,21.567,42.58,24.268,42.58,24.268z
			 M36.596,14.497c1.646,0,2.982,1.334,2.982,2.981c0,1.646-1.336,2.981-2.982,2.981s-2.98-1.335-2.98-2.981
			C33.615,15.831,34.949,14.497,36.596,14.497z M20.498,14.484c1.641,0,2.973,1.332,2.973,2.972c0,1.642-1.332,2.972-2.973,2.972
			c-1.642,0-2.973-1.331-2.973-2.972C17.524,15.816,18.856,14.484,20.498,14.484z M23.564,35.787v4.854c0,0-0.033,1.669-2.217,1.888
			h-1.939c0,0-1.766-0.158-1.775-2.301v-7.738h-0.734c0,0-2.222,0.087-2.29-2.467v-5.754c0,0,0.088-2.701,2.942-2.828l1.671,3.341
			l0.959-1.156l-0.012-0.292c0,0-1.007-0.771-0.236-1.691c0,0,1.348-0.625,1.601,0.538c0,0,0.17,0.818-0.454,1.137
			c0,0,0.013,0.653,0.485,0.715c0,0-0.526,0.677-0.526,1.019v7.509C21.039,32.561,21.177,34.946,23.564,35.787z M25.665,19.44
			c0-1.643,1.332-2.975,2.975-2.975s2.974,1.333,2.974,2.975s-1.332,2.975-2.974,2.975S25.665,21.083,25.665,19.44z M34.514,26.176
			c-0.025,2.623,0.041,0.199,0.041,0.199v5.856c0,0-0.029,2.343-3.003,2.187v8.384c0,0-0.258,1.733-2.937,1.62v0.015
			c-2.716,0.133-2.935-1.635-2.935-1.635v-8.384c-2.973,0.156-3.003-2.187-3.003-2.187v-5.856c0,0,0.068,2.423,0.04-0.199
			c-0.027-2.624,2.867-2.675,2.867-2.675l1.617,3.187l1.012-1.312c0,0-0.571-0.166-0.571-1.044c0-0.75,0.736-0.843,0.953-0.855
			v-0.002c0,0,0.019,0,0.049,0.001c0.008,0,0.013,0,0.013,0v0.001c0.213,0.012,0.934,0.107,0.934,0.856
			c0,0.879-0.571,1.044-0.571,1.044l1.012,1.312l1.617-3.187C31.648,23.501,34.541,23.553,34.514,26.176z M13.777,31.97h-3.339
			v19.132h39.371l0.021-6.669h3.988v6.303c0,0,0.699,3.246-3.328,3.885H10.139c0,0-3.423-0.423-3.511-3.594V32.072H3.154
			l5.489-5.878L13.777,31.97z"/>
		<g>
			<circle fill-rule="evenodd" clip-rule="evenodd" fill="#FFFFFF" cx="43.66" cy="46.036" r="13.059"/>
			<path fill-rule="evenodd" clip-rule="evenodd" fill="#65BB46" d="M43.779,30.794c8.375,0,15.166,6.79,15.166,15.165
				c0,8.377-6.791,15.168-15.166,15.168c-8.377,0-15.168-6.791-15.168-15.168C28.611,37.584,35.402,30.794,43.779,30.794z
				 M43.779,34.433c6.369,0,11.531,5.159,11.531,11.526c0,6.368-5.162,11.532-11.531,11.532s-11.532-5.164-11.532-11.532
				C32.248,39.592,37.41,34.433,43.779,34.433z"/>
			<g>
				<path fill-rule="evenodd" clip-rule="evenodd" d="M34.16,57.1c0,0,0.303-2.178,0.854-4.37l3.361,3.622
					C37.346,56.633,35.982,56.902,34.16,57.1z"/>
				<path fill-rule="evenodd" clip-rule="evenodd" fill="#FFD640" d="M50.207,34.969l5.693,5.698l-14.51,14.255
					c0,0-0.057,0.073-0.307,0.258l-5.164-5.169C35.961,49.921,50.207,34.969,50.207,34.969z"/>
				<path fill-rule="evenodd" clip-rule="evenodd" fill="#FAA722" d="M34.746,53.812c0.285-1.306,0.67-2.745,1.141-3.83l5.197,5.197
					c-0.404,0.318-1.387,0.893-3.533,1.379L34.746,53.812z"/>
				<path fill-rule="evenodd" clip-rule="evenodd" fill="#FFD640" d="M35.887,49.982"/>
				<path fill-rule="evenodd" clip-rule="evenodd" fill="#E3F3F6" d="M49.988,35.186l3.193-3.282l5.768,5.764l-3.268,3.21
					L49.988,35.186z"/>
				<path fill-rule="evenodd" clip-rule="evenodd" fill="#F58762" d="M58.648,37.84l-5.652-5.653l1.402-1.441
					c0,0,1.84-1.505,3.346-0.167l2.508,3.009c0,0,1.336,1.339,0,2.676L58.648,37.84z"/>
			</g>
		</g>
	</g>
</g>
<g id="Layer_17" display="none">
	<g display="inline">
		<path fill-rule="evenodd" clip-rule="evenodd" fill="#2D4554" d="M10.798,8.842h33.104c2.302,0,4.173,1.868,4.173,4.173v44.784
			c0,2.305-1.871,4.174-4.173,4.174H10.798c-2.305,0-4.172-1.869-4.172-4.174V13.015C6.625,10.71,8.493,8.842,10.798,8.842z
			 M10.937,12.736h32.128c0.46,0,0.836,0.374,0.836,0.834v43.674c0,0.461-0.376,0.832-0.836,0.832H10.937
			c-0.461,0-0.834-0.371-0.834-0.832V13.57C10.103,13.11,10.476,12.736,10.937,12.736z"/>
		<path fill-rule="evenodd" clip-rule="evenodd" fill="#78909D" d="M39.659,12.876c0,2.643-2.086,2.781-2.086,2.781H17.545
			c-2.643-0.278-2.503-2.921-2.503-2.921V7.312l6.552,0.037c0.162-2.967,2.611-5.322,5.617-5.322c3.028,0,5.492,2.391,5.621,5.386
			l6.828,0.039V12.876z M27.284,4.602c1.592,0,2.885,1.292,2.885,2.886s-1.292,2.886-2.885,2.886c-1.594,0-2.886-1.292-2.886-2.886
			S25.689,4.602,27.284,4.602z"/>
		<g>
			<g>
				<path fill-rule="evenodd" clip-rule="evenodd" fill="#ADBBC3" d="M19.286,32.992h21.143c0.307,0,0.556-0.249,0.556-0.556
					c0-0.308-0.249-0.557-0.556-0.557H19.286c-0.307,0-0.556,0.249-0.556,0.557C18.73,32.743,18.979,32.992,19.286,32.992z
					 M40.429,36.053H19.286c-0.307,0-0.556,0.248-0.556,0.555s0.249,0.555,0.556,0.555h21.143c0.307,0,0.556-0.248,0.556-0.555
					S40.735,36.053,40.429,36.053z M40.429,40.223H19.286c-0.307,0-0.556,0.25-0.556,0.555c0,0.309,0.249,0.557,0.556,0.557h21.143
					c0.307,0,0.556-0.248,0.556-0.557C40.984,40.473,40.735,40.223,40.429,40.223z M13.771,31.88c-0.031,0-0.056,0.249-0.056,0.557
					c0,0.307,0.025,0.556,0.056,0.556H15.9c0.031,0,0.056-0.249,0.056-0.556c0-0.308-0.025-0.557-0.056-0.557H13.771z
					 M13.771,36.053c-0.031,0-0.056,0.248-0.056,0.555s0.025,0.555,0.056,0.555H15.9c0.031,0,0.056-0.248,0.056-0.555
					s-0.025-0.555-0.056-0.555H13.771z M13.771,40.223c-0.031,0-0.056,0.25-0.056,0.555c0,0.309,0.025,0.557,0.056,0.557H15.9
					c0.031,0,0.056-0.248,0.056-0.557c0-0.305-0.025-0.555-0.056-0.555H13.771z"/>
			</g>
		</g>
		<text transform="matrix(1 0 0 1 12.4863 27.2056)" fill="#00B697" font-family="'MyriadPro-Regular'" font-size="12.1375">LOAN</text>
		<g>
			<path fill-rule="evenodd" clip-rule="evenodd" d="M28.349,58.633c0,0,0.329-2.367,0.928-4.754l3.656,3.941
				C31.814,58.125,30.331,58.42,28.349,58.633z"/>
			<path fill-rule="evenodd" clip-rule="evenodd" fill="#FFD640" d="M45.803,34.561l6.193,6.199L36.214,56.266
				c0,0-0.062,0.078-0.334,0.279l-5.617-5.623C30.308,50.824,45.803,34.561,45.803,34.561z"/>
			<path fill-rule="evenodd" clip-rule="evenodd" fill="#FAA722" d="M28.986,55.059c0.31-1.422,0.729-2.986,1.241-4.166l5.653,5.652
				c-0.439,0.346-1.508,0.971-3.843,1.5L28.986,55.059z"/>
			<path fill-rule="evenodd" clip-rule="evenodd" fill="#FFD640" d="M30.227,50.893"/>
			<path fill-rule="evenodd" clip-rule="evenodd" fill="#E3F3F6" d="M45.565,34.797l3.474-3.568l6.272,6.27l-3.554,3.49
				L45.565,34.797z"/>
			<path fill-rule="evenodd" clip-rule="evenodd" fill="#F58762" d="M54.984,37.686l-6.147-6.149l1.525-1.567
				c0,0,2.001-1.638,3.639-0.182l2.728,3.272c0,0,1.453,1.456,0,2.911L54.984,37.686z"/>
		</g>
	</g>
</g>
<g id="Layer_17_copy" display="none">
	<g display="inline">
		<path fill-rule="evenodd" clip-rule="evenodd" fill="#2D4554" d="M15.149,8.368h30.773c2.141,0,3.879,1.736,3.879,3.879v41.632
			c0,2.143-1.738,3.88-3.879,3.88H15.149c-2.142,0-3.879-1.737-3.879-3.88V12.247C11.27,10.104,13.007,8.368,15.149,8.368z
			 M15.278,11.988h29.867c0.428,0,0.777,0.348,0.777,0.775v40.6c0,0.428-0.35,0.773-0.777,0.773H15.278
			c-0.428,0-0.775-0.346-0.775-0.773v-40.6C14.503,12.336,14.85,11.988,15.278,11.988z"/>
		<path fill-rule="evenodd" clip-rule="evenodd" fill="#78909D" d="M41.979,12.118c0,2.457-1.939,2.585-1.939,2.585H21.421
			c-2.457-0.259-2.327-2.715-2.327-2.715V6.946l6.09,0.035c0.151-2.758,2.428-4.948,5.222-4.948c2.814,0,5.105,2.222,5.225,5.007
			l6.348,0.036V12.118z M30.475,4.426c1.48,0,2.682,1.201,2.682,2.683s-1.202,2.683-2.682,2.683c-1.482,0-2.683-1.201-2.683-2.683
			S28.992,4.426,30.475,4.426z"/>
		<g>
			<g>
				<path fill-rule="evenodd" clip-rule="evenodd" fill="#ADBBC3" d="M23.04,30.818h19.653c0.285,0,0.518-0.231,0.518-0.517
					c0-0.286-0.232-0.518-0.518-0.518H23.04c-0.285,0-0.517,0.231-0.517,0.518C22.523,30.587,22.755,30.818,23.04,30.818z
					 M42.693,33.663H23.04c-0.285,0-0.517,0.23-0.517,0.516s0.231,0.516,0.517,0.516h19.653c0.285,0,0.518-0.23,0.518-0.516
					S42.979,33.663,42.693,33.663z M42.693,37.54H23.04c-0.285,0-0.517,0.232-0.517,0.516c0,0.286,0.231,0.518,0.517,0.518h19.653
					c0.285,0,0.518-0.231,0.518-0.518C43.211,37.772,42.979,37.54,42.693,37.54z M17.914,29.784c-0.029,0-0.053,0.231-0.053,0.518
					c0,0.285,0.023,0.517,0.053,0.517h1.978c0.029,0,0.053-0.231,0.053-0.517c0-0.286-0.024-0.518-0.053-0.518H17.914z
					 M17.914,33.663c-0.029,0-0.053,0.23-0.053,0.516s0.023,0.516,0.053,0.516h1.978c0.029,0,0.053-0.23,0.053-0.516
					s-0.024-0.516-0.053-0.516H17.914z M17.914,37.54c-0.029,0-0.053,0.232-0.053,0.516c0,0.286,0.023,0.518,0.053,0.518h1.978
					c0.029,0,0.053-0.231,0.053-0.518c0-0.283-0.024-0.516-0.053-0.516H17.914z"/>
			</g>
		</g>
		<text transform="matrix(1 0 0 1 20.9346 25.439)" fill="#00B697" font-family="'MyriadPro-Regular'" font-size="11.2831">LIST</text>
		<circle fill-rule="evenodd" clip-rule="evenodd" fill="#78909D" cx="42.214" cy="51.451" r="10.516"/>
		<path fill-rule="evenodd" clip-rule="evenodd" fill="#FFFFFF" d="M36.861,49.226l-2.482,2.502l5.547,5.642l9.652-9.312
			l-2.498-2.523l-7.199,6.854L36.861,49.226z"/>
	</g>
</g>
<g id="Layer_20" display="none">
	<g display="inline">
		<rect x="4.472" y="5.69" fill-rule="evenodd" clip-rule="evenodd" fill="#F4CF92" width="40.961" height="25.049"/>
		<rect x="18.42" y="12.37" fill-rule="evenodd" clip-rule="evenodd" fill="#F3E8D7" width="40.963" height="27.407"/>
		<polygon fill-rule="evenodd" clip-rule="evenodd" fill="#FFFFFF" points="12.526,19.837 51.818,19.837 51.818,45.966 
			42.979,45.966 36.004,56.771 30.896,46.555 12.526,46.555 		"/>
		<g>
			<g>
				<path fill-rule="evenodd" clip-rule="evenodd" fill="#FCAF21" d="M47.011,10.283V3.939H2.88v28.203h7.896v15.853h19.367
					l5.5,12.05l8.514-12.05h9.05v-6.213h7.914V10.283H47.011z M10.776,29.061H6.138V7.023h37.617v3.26H16.858v7.916h-6.082V29.061z
					 M49.947,44.782l-7.623-0.132l-6.287,9.169l-3.145-9.037H13.903V21.283h36.044V44.782z M57.73,38.569h-4.524v-20.37H20.247
					v-4.701H57.73V38.569z"/>
			</g>
		</g>
		<g>
			<g>
				<path fill-rule="evenodd" clip-rule="evenodd" fill="#9E6327" d="M10.785,18.215v29.797h19.367l5.499,12.049l8.515-12.049h9.051
					V18.215H10.785z M49.956,44.659l-7.632-0.009l-6.277,9.186l-3.146-9.037H13.912V21.3h36.044V44.659z"/>
			</g>
		</g>
		<path fill-rule="evenodd" clip-rule="evenodd" fill="#9E6327" d="M21.499,25.239h22.265c0.868,0,1.571,0.702,1.571,1.571
			c0,0.868-0.703,1.571-1.571,1.571H21.499c-0.869,0-1.571-0.703-1.571-1.571C19.927,25.941,20.629,25.239,21.499,25.239z"/>
		<path fill-rule="evenodd" clip-rule="evenodd" fill="#9E6327" d="M22.153,33.097h15.192c0.941,0,1.704,0.763,1.704,1.703
			s-0.763,1.703-1.704,1.703H22.153c-0.939,0-1.703-0.763-1.703-1.703S21.213,33.097,22.153,33.097z"/>
	</g>
</g>
<g id="Layer_21" display="none">
	<g display="inline">
		<polygon fill-rule="evenodd" clip-rule="evenodd" fill="#FFFFFF" points="22.293,13.934 60.189,13.934 60.189,39.168 
			51.604,39.168 45.1,48.621 40.504,39.342 22.293,39.342 		"/>
		<g>
			<g>
				<path fill="#F78F27" d="M21.165,12.774l-0.007,27.949h18.679l5.176,10.502l6.854-10.502h9.334V12.774H21.165z M58.654,37.95
					l-7.639,0.021l-5.781,8.042L41.467,38.1H23.5V15.304h35.155V37.95z"/>
			</g>
		</g>
		<path fill-rule="evenodd" clip-rule="evenodd" fill="#00A0BF" d="M52.354,34.451l-8.176-6.863l-2.301,1.957
			c0,0-0.461,0.402-1.152,0.057l-2.244-1.956l-8.578,6.806H52.354z"/>
		<polygon fill-rule="evenodd" clip-rule="evenodd" fill="#00A0BF" points="29.702,33.805 37.674,26.956 29.702,20.106 		"/>
		<path fill-rule="evenodd" clip-rule="evenodd" fill="#00A0BF" d="M51.951,18.524H30.364c0,0-0.518,0-0.749,0.46l11.052,9.237
			c0,0,0.404,0.264,0.662,0.264c0.264,0,0.547-0.207,0.547-0.207l10.82-9.179C52.697,19.1,52.812,18.524,51.951,18.524z"/>
		<polygon fill-rule="evenodd" clip-rule="evenodd" fill="#00A0BF" points="52.74,20.048 45.1,26.897 52.74,33.978 		"/>
		<path fill="#7E461D" d="M19.008,19.893c0,0.756-0.613,1.369-1.368,1.369h-7.563c-0.756,0-1.369-0.613-1.369-1.369l0,0
			c0-0.756,0.613-1.368,1.369-1.368h7.563C18.396,18.524,19.008,19.137,19.008,19.893L19.008,19.893z"/>
		<path fill="#7E461D" d="M19.008,31.02c0,0.755-0.613,1.368-1.368,1.368h-7.563c-0.756,0-1.369-0.613-1.369-1.368l0,0
			c0-0.756,0.613-1.369,1.369-1.369h7.563C18.396,29.65,19.008,30.264,19.008,31.02L19.008,31.02z"/>
		<path fill="#7E461D" d="M2.8,25.576c0,0.793,0.644,1.437,1.437,1.437h13.334c0.793,0,1.437-0.644,1.437-1.437l0,0
			c0-0.794-0.643-1.437-1.437-1.437H4.237C3.444,24.14,2.8,24.782,2.8,25.576L2.8,25.576z"/>
	</g>
</g>
<g id="Layer_18" display="none">
	<path display="inline" fill-rule="evenodd" clip-rule="evenodd" fill="#00B697" d="M5.416,34.957c0,0-2.76,2.008-2.383,8.154
		c0,0-0.251,5.52,2.759,7.149h4.39c0,0,4.642,0,7.777,1.506c0,0,8.028,4.516,14.174,4.892c0,0,11.867,1.154,17.436-4.516
		c0,0,3.136-2.258,8.78-10.285c0,0,5.65-7.232,1.254-9.158c0,0-3.011-1.129-5.896,3.386l-4.642,4.643l-2.258,2.006
		c0,0-0.501,5.018-6.271,5.771H28.37c0,0-2.634,0.126-3.512-0.753c0,0,1.505-1.379,5.017-1.254h9.534c0,0,5.466-0.561,5.278-5.623
		c0,0-0.137-3.66-5.028-4.161H27.116c0,0-2.509-4.014-10.537-4.139c0,0-2.084-0.131-4.454,0.55
		c-1.239,0.355-2.536,1.187-3.699,1.832H5.416z"/>
	<g display="inline">
		<g>
			<g>
				<path fill-rule="evenodd" clip-rule="evenodd" fill="#BFC0C1" d="M45.16,15.277c-1.172,0-2.123,0.95-2.123,2.123
					s0.951,2.123,2.123,2.123c1.173,0,2.123-0.951,2.123-2.123S46.333,15.277,45.16,15.277z M20.328,8.875v17.251H50.45V8.875
					H20.328z M24.573,24.98c0,0,0.136-2.897-3.167-3.234v-8.625c0,0,3.302-0.203,3.302-3.167h8.019c0,0-6.401,7.21,0.135,15.027
					H24.573z M49.439,21.746c-3.302,0.337-3.168,3.234-3.168,3.234h-8.288c6.537-7.817,0.135-15.027,0.135-15.027h8.02
					c0,2.965,3.302,3.167,3.302,3.167V21.746z M25.752,15.277c-1.171,0-2.123,0.95-2.123,2.123s0.951,2.123,2.123,2.123
					c1.172,0,2.123-0.951,2.123-2.123S26.924,15.277,25.752,15.277z"/>
			</g>
		</g>
		<rect x="18.562" y="11.938" fill-rule="evenodd" clip-rule="evenodd" fill="#FFFFFF" width="29.062" height="15.812"/>
		<g>
			<g>
				<path fill-rule="evenodd" clip-rule="evenodd" fill="#FCAF21" d="M42.848,17.714c-1.172,0-2.123,0.95-2.123,2.123
					s0.951,2.123,2.123,2.123c1.173,0,2.123-0.951,2.123-2.123S44.021,17.714,42.848,17.714z M23.44,17.714
					c-1.171,0-2.123,0.95-2.123,2.123s0.951,2.123,2.123,2.123c1.172,0,2.123-0.951,2.123-2.123S24.612,17.714,23.44,17.714z
					 M18.016,11.312v17.251h30.122V11.312H18.016z M22.26,27.418c0,0,0.136-2.897-3.167-3.234v-8.625c0,0,3.302-0.203,3.302-3.167
					h8.019c0,0-6.401,7.21,0.135,15.027H22.26z M47.127,24.184c-3.302,0.337-3.168,3.234-3.168,3.234h-8.288
					c6.537-7.817,0.135-15.027,0.135-15.027h8.02c0,2.965,3.302,3.167,3.302,3.167V24.184z"/>
			</g>
		</g>
	</g>
</g>
</svg>
