<?xml version="1.0" encoding="utf-8"?>
<!-- Generator: Adobe Illustrator 15.1.0, SVG Export Plug-In . SVG Version: 6.00 Build 0)  -->
<!DOCTYPE svg PUBLIC "-//W3C//DTD SVG 1.1//EN" "http://www.w3.org/Graphics/SVG/1.1/DTD/svg11.dtd">
<svg version="1.1" id="Layer_1" xmlns="http://www.w3.org/2000/svg" xmlns:xlink="http://www.w3.org/1999/xlink" x="0px" y="0px"
	 width="128px" height="128px" viewBox="0 0 128 128" enable-background="new 0 0 128 128" xml:space="preserve">
<g>
	<g>
		<path fill="#DA8727" d="M79.849,16.868"/>
		<path fill="#DA8727" d="M93.435,16.868"/>
		<path fill="#FFE27E" d="M33.626,90.091"/>
		<path fill="#BD722B" d="M72.107,125.282"/>
		<path fill="#BD722B" d="M72.58,117.931"/>
	</g>
	<g id="Layer_1_1_">
		<path fill="#D1D8DC" d="M113.99,17.332H27.182c-6.053,0-10.961,4.908-10.961,10.963v88.745c0,6.055,4.908,10.961,10.961,10.961
			h86.808c6.055,0,10.965-4.906,10.965-10.961V28.295C124.953,22.237,120.039,17.332,113.99,17.332"/>
		<path fill="#77909D" d="M27.008,17.332h87.035c6.021,0,10.912,4.908,10.912,10.963v23.29c0,0.06-108.858-0.154-108.858,0v-23.29
			C16.095,22.237,20.979,17.332,27.008,17.332"/>
		<rect x="43.803" y="72.203" fill="#8FA3AE" width="14.043" height="14.173"/>
		<rect x="64.633" y="72.203" fill="#8FA3AE" width="14.043" height="14.173"/>
		<rect x="85.46" y="72.203" fill="#8FA3AE" width="14.041" height="14.173"/>
		<rect x="43.803" y="93.024" fill="#8FA3AE" width="14.043" height="14.177"/>
		<rect x="64.633" y="93.024" fill="#8FA3AE" width="14.043" height="14.177"/>
		<rect x="85.46" y="93.024" fill="#8FA3AE" width="14.041" height="14.177"/>
		<path fill="#D1D8DC" d="M100.334,11.026c3.783,0,6.856,3.07,6.856,6.858v12.633c0,3.789-3.073,6.857-6.856,6.857
			c-3.781,0-6.856-3.067-6.856-6.857V17.884C93.478,14.097,96.553,11.026,100.334,11.026"/>
		<path fill="#2B3B44" d="M100.09,20.407c5.843,0,10.574,4.735,10.574,10.573c0,5.844-4.731,10.568-10.574,10.568
			c-5.835,0-10.57-4.727-10.57-10.568C89.52,25.141,94.255,20.407,100.09,20.407"/>
		<path fill="#D1D8DC" d="M100.484,10.991c3.637,0,6.585,2.947,6.585,6.582v13.268c0,3.643-2.948,6.586-6.585,6.586
			c-3.636,0-6.586-2.945-6.586-6.586V17.573C93.902,13.938,96.849,10.991,100.484,10.991"/>
		<path fill="#EF452E" d="M36.131,0.001c18.792,0,34.03,15.235,34.03,34.028c0,18.794-15.237,34.029-34.03,34.029
			c-18.793,0-34.028-15.235-34.028-34.029C2.103,15.236,17.34,0.001,36.131,0.001"/>
		<path fill="#FFFFFF" d="M52.658,14.79c-4.442-3.783-10.182-6.081-16.476-6.081c-14.034,0-25.417,11.381-25.417,25.418
			c0,0.899,0.048,1.786,0.142,2.662c1.092,13.152,12.095,23.488,25.523,23.488c14.158,0,25.64-11.474,25.64-25.639
			C62.07,26.636,58.399,19.492,52.658,14.79"/>
		<polygon fill="#2D2C2C" points="33.313,30.917 33.313,14.241 38.752,14.241 38.933,31.458 39.658,33.996 48.176,42.517 
			44.553,46.143 36.395,37.444 		"/>
		<path fill="#2D2C2C" d="M35.957,30.21c2.103,0,3.805,1.699,3.805,3.795c0,2.105-1.702,3.805-3.805,3.805
			c-2.096,0-3.799-1.7-3.799-3.805C32.158,31.907,33.859,30.21,35.957,30.21"/>
	</g>
</g>
</svg>
